<svg xmlns="http://www.w3.org/2000/svg" viewBox="0 0 512 512"><path d="M437.02 74.98C337.04-25 174.94-25 74.98 74.98c-99.97 99.98-99.97 262.08 0 362.04 99.96 99.98 262.06 99.98 362.04 0 99.98-99.96 99.98-262.06 0-362.04zm-30.17 331.86c-83.32 83.32-218.4 83.32-301.7 0-83.31-83.3-83.31-218.37 0-301.68 83.3-83.32 218.38-83.32 301.7 0s83.31 218.39 0 301.68z"/><path d="M256 85.34a21.33 21.33 0 00-21.34 21.33V320a21.33 21.33 0 1042.67 0V106.67A21.33 21.33 0 00256 85.34zM256 384a21.34 21.34 0 10.01 42.69A21.34 21.34 0 00256 384z"/></svg>